<svg xmlns="http://www.w3.org/2000/svg" xmlns:xlink="http://www.w3.org/1999/xlink" width="350" zoomAndPan="magnify" viewBox="0 0 262.5 37.5" height="50" preserveAspectRatio="xMidYMid meet" version="1.0"><defs><g/></defs><g fill="#ffffff" fill-opacity="1"><g transform="translate(139.986929, 32.821309)"><g><path d="M 17.367188 -31.539062 C 23.941406 -31.539062 28.597656 -28.648438 31.339844 -22.867188 L 31.535156 -22.453125 L 23.273438 -18.988281 L 23.109375 -19.40625 C 22.554688 -20.847656 21.75 -21.960938 20.699219 -22.75 C 19.660156 -23.527344 18.429688 -23.917969 17.007812 -23.917969 C 14.859375 -23.917969 13.097656 -23.054688 11.722656 -21.328125 C 10.320312 -19.570312 9.621094 -17.414062 9.621094 -14.851562 C 9.621094 -13.292969 9.933594 -11.804688 10.558594 -10.398438 C 11.179688 -9.007812 12.058594 -7.902344 13.191406 -7.082031 C 14.3125 -6.273438 15.625 -5.867188 17.128906 -5.867188 C 18.859375 -5.867188 20.234375 -6.296875 21.257812 -7.160156 C 22.273438 -8.015625 22.855469 -9.199219 23.003906 -10.703125 L 23.4375 -10.660156 L 23.4375 -10.222656 L 16.613281 -10.222656 L 16.613281 -17.246094 L 33.023438 -17.246094 L 33.015625 -16.804688 C 32.964844 -13.023438 32.527344 -10.109375 31.707031 -8.0625 C 30.886719 -6.011719 29.742188 -4.257812 28.277344 -2.804688 C 26.808594 -1.347656 25.136719 -0.277344 23.269531 0.410156 C 21.410156 1.09375 19.351562 1.433594 17.089844 1.433594 C 12.175781 1.433594 8.203125 -0.0859375 5.160156 -3.125 C 2.121094 -6.164062 0.601562 -10.085938 0.601562 -14.894531 C 0.601562 -19.859375 2.132812 -23.875 5.203125 -26.941406 C 8.269531 -30.007812 12.324219 -31.539062 17.367188 -31.539062 Z M 17.367188 -30.667969 C 12.566406 -30.667969 8.714844 -29.21875 5.820312 -26.324219 C 2.921875 -23.425781 1.476562 -19.617188 1.476562 -14.894531 C 1.476562 -10.328125 2.910156 -6.613281 5.777344 -3.742188 C 8.648438 -0.875 12.417969 0.5625 17.089844 0.5625 C 19.246094 0.5625 21.207031 0.238281 22.96875 -0.410156 C 24.71875 -1.054688 26.28125 -2.058594 27.660156 -3.425781 C 29.042969 -4.792969 30.121094 -6.445312 30.898438 -8.386719 C 31.675781 -10.332031 32.089844 -13.144531 32.144531 -16.816406 L 32.582031 -16.808594 L 32.582031 -16.371094 L 17.050781 -16.371094 L 17.050781 -16.808594 L 17.484375 -16.808594 L 17.484375 -10.660156 L 17.050781 -10.660156 L 17.050781 -11.097656 L 23.917969 -11.097656 L 23.871094 -10.617188 C 23.699219 -8.875 23.019531 -7.5 21.824219 -6.492188 C 20.636719 -5.492188 19.070312 -4.992188 17.128906 -4.992188 C 15.4375 -4.992188 13.953125 -5.453125 12.679688 -6.375 C 11.417969 -7.285156 10.445312 -8.507812 9.761719 -10.042969 C 9.085938 -11.5625 8.746094 -13.167969 8.746094 -14.851562 C 8.746094 -17.617188 9.511719 -19.957031 11.039062 -21.871094 C 12.589844 -23.820312 14.578125 -24.792969 17.007812 -24.792969 C 18.625 -24.792969 20.027344 -24.34375 21.222656 -23.449219 C 22.410156 -22.558594 23.308594 -21.316406 23.925781 -19.722656 L 23.515625 -19.566406 L 23.347656 -19.96875 L 30.773438 -23.082031 L 30.945312 -22.679688 L 30.550781 -22.492188 C 27.964844 -27.941406 23.574219 -30.667969 17.367188 -30.667969 Z M 17.367188 -30.667969 "/></g></g></g><g fill="#ffffff" fill-opacity="1"><g transform="translate(172.721254, 32.821309)"><g><path d="M 20.371094 -30.257812 L 31.933594 0.4375 L 22.65625 0.4375 L 20.59375 -5.078125 L 21 -5.230469 L 21 -4.792969 L 10.222656 -4.792969 L 10.222656 -5.230469 L 10.628906 -5.070312 L 8.441406 0.4375 L -0.796875 0.4375 L 11.121094 -30.542969 L 20.265625 -30.542969 Z M 19.554688 -29.953125 L 19.964844 -30.105469 L 19.964844 -29.667969 L 11.417969 -29.667969 L 11.417969 -30.105469 L 11.828125 -29.949219 L 0.246094 0.15625 L -0.160156 0 L -0.160156 -0.4375 L 8.144531 -0.4375 L 8.144531 0 L 7.738281 -0.160156 L 9.925781 -5.667969 L 21.304688 -5.667969 L 23.367188 -0.152344 L 22.957031 0 L 22.957031 -0.4375 L 31.304688 -0.4375 L 31.304688 0 L 30.894531 0.152344 Z M 12.378906 -11.65625 L 18.886719 -11.65625 L 18.886719 -11.21875 L 18.472656 -11.082031 L 15.277344 -20.664062 L 15.691406 -20.800781 L 15.691406 -20.367188 L 15.613281 -20.367188 L 15.613281 -20.800781 L 16.027344 -20.664062 L 12.792969 -11.078125 L 12.378906 -11.21875 Z M 11.769531 -10.78125 L 15.296875 -21.238281 L 16.007812 -21.238281 L 19.492188 -10.78125 Z M 11.769531 -10.78125 "/></g></g></g><g fill="#ffffff" fill-opacity="1"><g transform="translate(200.6248, 32.821309)"><g><path d="M 21.4375 -30.105469 L 21.4375 -23.039062 L 14.535156 -23.039062 L 14.535156 -23.476562 L 14.96875 -23.476562 L 14.96875 0.4375 L 6.269531 0.4375 L 6.269531 -23.476562 L 6.707031 -23.476562 L 6.707031 -23.039062 L -0.195312 -23.039062 L -0.195312 -30.542969 L 21.4375 -30.542969 Z M 20.566406 -30.105469 L 21 -30.105469 L 21 -29.667969 L 0.238281 -29.667969 L 0.238281 -30.105469 L 0.675781 -30.105469 L 0.675781 -23.476562 L 0.238281 -23.476562 L 0.238281 -23.914062 L 7.144531 -23.914062 L 7.144531 0 L 6.707031 0 L 6.707031 -0.4375 L 14.535156 -0.4375 L 14.535156 0 L 14.097656 0 L 14.097656 -23.914062 L 21 -23.914062 L 21 -23.476562 L 20.566406 -23.476562 Z M 20.566406 -30.105469 "/></g></g></g><g fill="#ffffff" fill-opacity="1"><g transform="translate(221.023802, 32.821309)"><g><path d="M 20.121094 -30.105469 L 20.121094 -23.039062 L 10.382812 -23.039062 L 10.382812 -23.476562 L 10.816406 -23.476562 L 10.816406 -18.445312 L 10.382812 -18.445312 L 10.382812 -18.882812 L 19.640625 -18.882812 L 19.640625 -11.382812 L 10.382812 -11.382812 L 10.382812 -11.820312 L 10.816406 -11.820312 L 10.816406 -6.628906 L 10.382812 -6.628906 L 10.382812 -7.066406 L 20.121094 -7.066406 L 20.121094 0.4375 L 2.117188 0.4375 L 2.117188 -30.542969 L 20.121094 -30.542969 Z M 19.246094 -30.105469 L 19.683594 -30.105469 L 19.683594 -29.667969 L 2.554688 -29.667969 L 2.554688 -30.105469 L 2.992188 -30.105469 L 2.992188 0 L 2.554688 0 L 2.554688 -0.4375 L 19.683594 -0.4375 L 19.683594 0 L 19.246094 0 L 19.246094 -6.628906 L 19.683594 -6.628906 L 19.683594 -6.191406 L 9.945312 -6.191406 L 9.945312 -12.253906 L 19.207031 -12.253906 L 19.207031 -11.820312 L 18.769531 -11.820312 L 18.769531 -18.445312 L 19.207031 -18.445312 L 19.207031 -18.011719 L 9.945312 -18.011719 L 9.945312 -23.914062 L 19.683594 -23.914062 L 19.683594 -23.476562 L 19.246094 -23.476562 Z M 19.246094 -30.105469 "/></g></g></g><g fill="#ffffff" fill-opacity="1"><g transform="translate(242.108764, 32.821309)"><g/></g></g><g fill="#ffffff" fill-opacity="1"><g transform="translate(6.023816, 32.821308)"><g><path d="M 10.375 -30.09375 L 10.375 -6.625 L 19.765625 -6.625 L 19.765625 0 L 2.5625 0 L 2.5625 -30.09375 Z M 10.375 -30.09375 "/></g></g></g><g fill="#ffffff" fill-opacity="1"><g transform="translate(24.905856, 32.821308)"><g><path d="M 19.6875 -30.09375 L 19.6875 -23.46875 L 10.375 -23.46875 L 10.375 -18.4375 L 19.203125 -18.4375 L 19.203125 -11.8125 L 10.375 -11.8125 L 10.375 -6.625 L 19.6875 -6.625 L 19.6875 0 L 2.5625 0 L 2.5625 -30.09375 Z M 19.6875 -30.09375 "/></g></g></g><g fill="#ffffff" fill-opacity="1"><g transform="translate(45.983499, 32.821308)"><g><path d="M 21 -30.09375 L 21 -23.46875 L 14.53125 -23.46875 L 14.53125 0 L 6.703125 0 L 6.703125 -23.46875 L 0.234375 -23.46875 L 0.234375 -30.09375 Z M 21 -30.09375 "/></g></g></g><g fill="#ffffff" fill-opacity="1"><g transform="translate(66.382501, 32.821308)"><g><path d="M 21 -30.09375 L 21 -23.46875 L 14.53125 -23.46875 L 14.53125 0 L 6.703125 0 L 6.703125 -23.46875 L 0.234375 -23.46875 L 0.234375 -30.09375 Z M 21 -30.09375 "/></g></g></g><g fill="#ffffff" fill-opacity="1"><g transform="translate(86.781503, 32.821308)"><g><path d="M 19.6875 -30.09375 L 19.6875 -23.46875 L 10.375 -23.46875 L 10.375 -18.4375 L 19.203125 -18.4375 L 19.203125 -11.8125 L 10.375 -11.8125 L 10.375 -6.625 L 19.6875 -6.625 L 19.6875 0 L 2.5625 0 L 2.5625 -30.09375 Z M 19.6875 -30.09375 "/></g></g></g><g fill="#ffffff" fill-opacity="1"><g transform="translate(107.859147, 32.821308)"><g><path d="M 14.375 -30.09375 C 17.539062 -30.09375 20.054688 -29.285156 21.921875 -27.671875 C 23.785156 -26.066406 24.71875 -23.789062 24.71875 -20.84375 C 24.71875 -18.632812 24.128906 -16.765625 22.953125 -15.234375 C 21.785156 -13.703125 20.175781 -12.734375 18.125 -12.328125 L 27.578125 0 L 17.84375 0 L 10.453125 -11.578125 L 10.375 -11.578125 L 10.375 0 L 2.5625 0 L 2.5625 -30.09375 Z M 10.375 -16.609375 L 11.0625 -16.609375 C 12.976562 -16.609375 14.375 -16.910156 15.25 -17.515625 C 16.125 -18.128906 16.5625 -19.078125 16.5625 -20.359375 C 16.5625 -21.640625 16.128906 -22.582031 15.265625 -23.1875 C 14.398438 -23.800781 13 -24.109375 11.0625 -24.109375 L 10.375 -24.109375 Z M 10.375 -16.609375 "/></g></g></g><g fill="#ffffff" fill-opacity="1"><g transform="translate(134.128738, 32.821308)"><g/></g></g></svg>